<?xml version="1.0" encoding="UTF-8"?>
<svg xmlns="http://www.w3.org/2000/svg" viewBox="0 0 800 600" width="800" height="600">
  <title>Module 09: Pneumonia/ARF Differential Diagnosis</title>
  <defs>
    <pattern id="hatch-45" patternUnits="userSpaceOnUse" width="5" height="5" patternTransform="rotate(45)">
      <line x1="0" y1="0" x2="0" y2="5" stroke="#000" stroke-width="0.8"/>
    </pattern>
    <pattern id="cross-hatch" patternUnits="userSpaceOnUse" width="4" height="4">
      <line x1="0" y1="0" x2="4" y2="4" stroke="#000" stroke-width="0.6"/>
      <line x1="4" y1="0" x2="0" y2="4" stroke="#000" stroke-width="0.6"/>
    </pattern>
    <pattern id="cross-hatch-dense" patternUnits="userSpaceOnUse" width="3" height="3">
      <line x1="0" y1="0" x2="3" y2="3" stroke="#000" stroke-width="0.6"/>
      <line x1="3" y1="0" x2="0" y2="3" stroke="#000" stroke-width="0.6"/>
    </pattern>
    <pattern id="stipple" patternUnits="userSpaceOnUse" width="6" height="6">
      <circle cx="1" cy="1" r="0.5" fill="#000"/>
      <circle cx="4" cy="4" r="0.5" fill="#000"/>
    </pattern>
    <pattern id="hepatization" patternUnits="userSpaceOnUse" width="5" height="5">
      <line x1="0" y1="2.5" x2="5" y2="2.5" stroke="#000" stroke-width="0.4"/>
      <line x1="2.5" y1="0" x2="2.5" y2="5" stroke="#000" stroke-width="0.3"/>
      <circle cx="1" cy="1" r="0.3" fill="#000"/>
      <circle cx="4" cy="4" r="0.3" fill="#000"/>
    </pattern>
    <pattern id="dense-stipple" patternUnits="userSpaceOnUse" width="4" height="4">
      <circle cx="1" cy="1" r="0.6" fill="#000"/>
      <circle cx="3" cy="3" r="0.6" fill="#000"/>
      <circle cx="1" cy="3" r="0.3" fill="#000"/>
      <circle cx="3" cy="1" r="0.3" fill="#000"/>
    </pattern>
    <clipPath id="sector-l">
      <path d="M133,95 L45,365 L221,365 Z"/>
    </clipPath>
    <clipPath id="sector-c">
      <path d="M400,95 L312,365 L488,365 Z"/>
    </clipPath>
    <clipPath id="sector-r">
      <path d="M667,95 L579,365 L755,365 Z"/>
    </clipPath>
  </defs>

  <!-- Background -->
  <rect width="800" height="600" fill="#fff"/>
  <rect x="5" y="5" width="790" height="590" fill="none" stroke="#000" stroke-width="5"/>
  <rect x="10" y="10" width="780" height="580" fill="none" stroke="#000" stroke-width="2"/>

  <!-- Title -->
  <rect x="15" y="15" width="770" height="50" fill="#000"/>
  <text x="400" y="38" font-family="serif" font-size="17" font-weight="bold" fill="#fff" text-anchor="middle">Module 09: Pneumonia / ARF — Differential Diagnosis</text>
  <text x="400" y="56" font-family="serif" font-size="13" fill="#fff" text-anchor="middle">肺炎 / 急性呼吸衰竭鑑別診斷</text>

  <!-- ======= PANEL 1: Hepatization (Left) ======= -->
  <rect x="18" y="72" width="248" height="520" fill="none" stroke="#000" stroke-width="3"/>
  <rect x="28" y="78" width="228" height="30" fill="#000"/>
  <text x="142" y="96" font-family="serif" font-size="11" font-weight="bold" fill="#fff" text-anchor="middle">肺實質化 Hepatization</text>

  <!-- Sector -->
  <path d="M133,118 L45,365 L221,365 Z" fill="#000" stroke="#000" stroke-width="3"/>
  <path d="M133,118 L45,365 L221,365 Z" fill="url(#stipple)" stroke="none" clip-path="url(#sector-l)"/>

  <!-- Ribs -->
  <ellipse cx="88" cy="152" rx="20" ry="9" fill="url(#cross-hatch)" stroke="#fff" stroke-width="2"/>
  <ellipse cx="178" cy="152" rx="20" ry="9" fill="url(#cross-hatch)" stroke="#fff" stroke-width="2"/>

  <!-- Pleural line -->
  <line x1="103" y1="168" x2="163" y2="168" stroke="#fff" stroke-width="3"/>

  <!-- Consolidated lung (hepatization - looks like liver) -->
  <path d="M100,172 L166,172 L210,340 Q133,370 56,340 Z" fill="url(#hepatization)" stroke="none" clip-path="url(#sector-l)"/>
  <path d="M100,172 L166,172 L210,340 Q133,370 56,340 Z" fill="url(#dense-stipple)" stroke="none" opacity="0.4" clip-path="url(#sector-l)"/>

  <!-- Consolidated lung border -->
  <path d="M100,172 L166,172 L210,340 Q133,370 56,340 Z" fill="none" stroke="#fff" stroke-width="1.5" clip-path="url(#sector-l)"/>

  <!-- Label: looks like liver -->
  <text x="133" y="200" font-family="monospace" font-size="8" fill="#fff" text-anchor="middle">Tissue-like</text>
  <text x="133" y="212" font-family="monospace" font-size="8" fill="#fff" text-anchor="middle">(looks like liver)</text>

  <!-- Comparison: liver reference below the consolidated area -->
  <!-- Diaphragm -->
  <path d="M58" y="340 Q133,355 208,340" fill="none" stroke="#fff" stroke-width="2.5"/>

  <!-- Actual liver below diaphragm -->
  <path d="M58,340 Q133,355 208,340 L215,363 L51,363 Z" fill="url(#hepatization)" stroke="none" clip-path="url(#sector-l)"/>
  <path d="M58,340 Q133,355 208,340 L215,363 L51,363 Z" fill="url(#dense-stipple)" stroke="none" opacity="0.4" clip-path="url(#sector-l)"/>
  <text x="133" y="358" font-family="monospace" font-size="7" fill="#fff" text-anchor="middle">Liver (similar echo)</text>

  <!-- Comparison bracket -->
  <path d="M220,180 L228,180 L228,340 L220,340" fill="none" stroke="#fff" stroke-width="1.5"/>
  <text x="220" y="255" font-family="monospace" font-size="6" fill="#fff" transform="rotate(90,220,255)">Same echogenicity</text>

  <!-- Sector border -->
  <path d="M133,118 L45,365 L221,365 Z" fill="none" stroke="#fff" stroke-width="2"/>

  <!-- Schematic below -->
  <rect x="30" y="375" width="222" height="130" fill="#fff" stroke="#000" stroke-width="2"/>
  <text x="141" y="392" font-family="serif" font-size="9" fill="#000" text-anchor="middle" font-weight="bold">Hepatization Comparison</text>

  <!-- Side by side: normal lung vs consolidated -->
  <!-- Normal lung box -->
  <rect x="40" y="400" width="95" height="90" fill="url(#stipple)" stroke="#000" stroke-width="1.5"/>
  <text x="87" y="415" font-family="serif" font-size="8" fill="#000" text-anchor="middle">Normal Lung</text>
  <!-- A-lines in normal -->
  <line x1="50" y1="430" x2="125" y2="430" stroke="#000" stroke-width="1.5"/>
  <line x1="50" y1="450" x2="125" y2="450" stroke="#000" stroke-width="1"/>
  <line x1="50" y1="470" x2="125" y2="470" stroke="#000" stroke-width="0.7"/>
  <text x="87" y="485" font-family="serif" font-size="7" fill="#000" text-anchor="middle">Air = A-lines</text>

  <!-- Consolidated lung box -->
  <rect x="147" y="400" width="95" height="90" fill="url(#hepatization)" stroke="#000" stroke-width="1.5"/>
  <rect x="147" y="400" width="95" height="90" fill="url(#dense-stipple)" stroke="none" opacity="0.3"/>
  <text x="194" y="415" font-family="serif" font-size="8" fill="#000" text-anchor="middle">Consolidated</text>
  <!-- Tissue texture (no A-lines) -->
  <text x="194" y="455" font-family="serif" font-size="8" fill="#000" text-anchor="middle">Tissue-like</text>
  <text x="194" y="470" font-family="serif" font-size="7" fill="#000" text-anchor="middle">No air = No A-lines</text>
  <text x="194" y="485" font-family="serif" font-size="7" fill="#000" text-anchor="middle">= Hepatization</text>

  <!-- Arrow -->
  <text x="140" y="450" font-family="serif" font-size="16" fill="#000" text-anchor="middle">&rarr;</text>

  <!-- Labels -->
  <text x="142" y="522" font-family="serif" font-size="10" fill="#000" text-anchor="middle">Lung Consolidation/Hepatization</text>
  <text x="142" y="537" font-family="serif" font-size="10" fill="#000" text-anchor="middle">肺實質化：肺部似肝臟回音</text>
  <text x="142" y="552" font-family="serif" font-size="9" fill="#000" text-anchor="middle" font-style="italic">組織樣外觀，無氣體偽影</text>


  <!-- ======= PANEL 2: Dynamic Air Bronchogram (Center) ======= -->
  <rect x="275" y="72" width="250" height="520" fill="none" stroke="#000" stroke-width="3"/>
  <rect x="285" y="78" width="230" height="30" fill="#000"/>
  <text x="400" y="96" font-family="serif" font-size="11" font-weight="bold" fill="#fff" text-anchor="middle">動態氣管支氣管徵</text>

  <!-- Sector -->
  <path d="M400,118 L312,365 L488,365 Z" fill="#000" stroke="#000" stroke-width="3"/>
  <path d="M400,118 L312,365 L488,365 Z" fill="url(#stipple)" stroke="none" clip-path="url(#sector-c)"/>

  <!-- Ribs -->
  <ellipse cx="352" cy="152" rx="20" ry="9" fill="url(#cross-hatch)" stroke="#fff" stroke-width="2"/>
  <ellipse cx="448" cy="152" rx="20" ry="9" fill="url(#cross-hatch)" stroke="#fff" stroke-width="2"/>

  <!-- Pleural line -->
  <line x1="367" y1="168" x2="433" y2="168" stroke="#fff" stroke-width="3"/>

  <!-- Consolidated lung tissue background -->
  <path d="M365,172 L435,172 L478,340 Q400,370 322,340 Z" fill="url(#hepatization)" stroke="none" clip-path="url(#sector-c)"/>
  <path d="M365,172 L435,172 L478,340 Q400,370 322,340 Z" fill="url(#dense-stipple)" stroke="none" opacity="0.3" clip-path="url(#sector-c)"/>

  <!-- Dynamic air bronchograms (bright branching lines with motion) -->
  <!-- Main bronchial trunk -->
  <path d="M400,185 L400,240" stroke="#fff" stroke-width="3"/>
  <!-- Branch left -->
  <path d="M400,240 L370,290" stroke="#fff" stroke-width="2.5"/>
  <path d="M370,290 L350,325" stroke="#fff" stroke-width="2"/>
  <path d="M370,290 L380,330" stroke="#fff" stroke-width="2"/>
  <!-- Branch right -->
  <path d="M400,240 L430,290" stroke="#fff" stroke-width="2.5"/>
  <path d="M430,290 L450,325" stroke="#fff" stroke-width="2"/>
  <path d="M430,290 L420,330" stroke="#fff" stroke-width="2"/>
  <!-- Smaller branches -->
  <path d="M350,325 L338,350" stroke="#fff" stroke-width="1.5"/>
  <path d="M380,330 L375,355" stroke="#fff" stroke-width="1.5"/>
  <path d="M450,325 L462,350" stroke="#fff" stroke-width="1.5"/>
  <path d="M420,330 L425,355" stroke="#fff" stroke-width="1.5"/>

  <!-- Bright dots at bronchial points -->
  <circle cx="400" cy="210" r="2.5" fill="#fff"/>
  <circle cx="385" cy="265" r="2" fill="#fff"/>
  <circle cx="415" cy="265" r="2" fill="#fff"/>
  <circle cx="360" cy="310" r="1.5" fill="#fff"/>
  <circle cx="440" cy="310" r="1.5" fill="#fff"/>

  <!-- MOTION ARROWS showing dynamic movement -->
  <!-- Arrow showing bronchogram movement with respiration -->
  <!-- Left side motion arrows -->
  <path d="M340,280 L332,270" fill="none" stroke="#fff" stroke-width="1.5"/>
  <polygon points="332,270 336,275 330,276" fill="#fff"/>
  <path d="M340,300 L332,290" fill="none" stroke="#fff" stroke-width="1.5"/>
  <polygon points="332,290 336,295 330,296" fill="#fff"/>

  <!-- Right side motion arrows -->
  <path d="M460,280 L468,270" fill="none" stroke="#fff" stroke-width="1.5"/>
  <polygon points="468,270 464,275 470,276" fill="#fff"/>
  <path d="M460,300 L468,290" fill="none" stroke="#fff" stroke-width="1.5"/>
  <polygon points="468,290 464,295 470,296" fill="#fff"/>

  <!-- Central motion arrows (up-down respiratory movement) -->
  <path d="M400,175 L392,182" fill="none" stroke="#fff" stroke-width="1.5"/>
  <polygon points="392,182 397,178 394,185" fill="#fff"/>
  <path d="M408,175 L416,182" fill="none" stroke="#fff" stroke-width="1.5"/>
  <polygon points="416,182 411,178 414,185" fill="#fff"/>

  <!-- Motion label -->
  <text x="400" y="358" font-family="monospace" font-size="8" fill="#fff" text-anchor="middle" font-weight="bold">DYNAMIC</text>
  <text x="460" y="270" font-family="monospace" font-size="7" fill="#fff">motion</text>
  <text x="325" y="270" font-family="monospace" font-size="7" fill="#fff" text-anchor="end">motion</text>

  <!-- Sector border -->
  <path d="M400,118 L312,365 L488,365 Z" fill="none" stroke="#fff" stroke-width="2"/>

  <!-- Explanation diagram below -->
  <rect x="287" y="375" width="226" height="130" fill="#fff" stroke="#000" stroke-width="2"/>
  <text x="400" y="392" font-family="serif" font-size="9" fill="#000" text-anchor="middle" font-weight="bold">Dynamic vs Static Air Bronchogram</text>

  <!-- Inspiration frame -->
  <rect x="297" y="400" width="95" height="55" fill="url(#hatch-45)" stroke="#000" stroke-width="1.5"/>
  <text x="344" y="413" font-family="serif" font-size="7" fill="#000" text-anchor="middle" font-weight="bold">Inspiration</text>
  <!-- Short bronchogram -->
  <line x1="330" y1="420" x2="330" y2="445" stroke="#000" stroke-width="2.5"/>
  <line x1="330" y1="435" x2="320" y2="448" stroke="#000" stroke-width="2"/>
  <line x1="330" y1="435" x2="340" y2="448" stroke="#000" stroke-width="2"/>

  <!-- Expiration frame -->
  <rect x="405" y="400" width="95" height="55" fill="url(#hatch-45)" stroke="#000" stroke-width="1.5"/>
  <text x="452" y="413" font-family="serif" font-size="7" fill="#000" text-anchor="middle" font-weight="bold">Expiration</text>
  <!-- Longer bronchogram (moved) -->
  <line x1="440" y1="418" x2="440" y2="448" stroke="#000" stroke-width="2.5"/>
  <line x1="440" y1="440" x2="428" y2="450" stroke="#000" stroke-width="2"/>
  <line x1="440" y1="440" x2="452" y2="450" stroke="#000" stroke-width="2"/>

  <!-- Arrow between phases -->
  <path d="M395,427 L408,427" fill="none" stroke="#000" stroke-width="2"/>
  <polygon points="408,427 404,424 404,430" fill="#000"/>

  <!-- Significance text -->
  <text x="400" y="470" font-family="serif" font-size="8" fill="#000" text-anchor="middle">Dynamic = Pneumonia</text>
  <text x="400" y="482" font-family="serif" font-size="8" fill="#000" text-anchor="middle">Static = Atelectasis/Obstruction</text>
  <text x="400" y="496" font-family="serif" font-size="8" fill="#000" text-anchor="middle" font-style="italic">動態 = 肺炎 / 靜態 = 肺塌陷</text>

  <!-- Labels -->
  <text x="400" y="522" font-family="serif" font-size="10" fill="#000" text-anchor="middle">Dynamic Air Bronchogram</text>
  <text x="400" y="537" font-family="serif" font-size="10" fill="#000" text-anchor="middle">動態氣管支氣管徵：隨呼吸移動</text>
  <text x="400" y="552" font-family="serif" font-size="9" fill="#000" text-anchor="middle" font-style="italic">鑑別肺炎 vs 肺塌陷</text>


  <!-- ======= PANEL 3: Lung Pulse (Right) ======= -->
  <rect x="532" y="72" width="250" height="520" fill="none" stroke="#000" stroke-width="3"/>
  <rect x="542" y="78" width="230" height="30" fill="#000"/>
  <text x="657" y="96" font-family="serif" font-size="11" font-weight="bold" fill="#fff" text-anchor="middle">肺搏動 Lung Pulse</text>

  <!-- B-mode sector (smaller, upper portion) -->
  <path d="M657,118 L599,270 L715,270 Z" fill="#000" stroke="#000" stroke-width="2.5"/>
  <path d="M657,118 L599,270 L715,270 Z" fill="url(#stipple)" stroke="none" clip-path="url(#sector-r)"/>

  <!-- Ribs -->
  <ellipse cx="627" cy="148" rx="14" ry="7" fill="url(#cross-hatch)" stroke="#fff" stroke-width="1.5"/>
  <ellipse cx="687" cy="148" rx="14" ry="7" fill="url(#cross-hatch)" stroke="#fff" stroke-width="1.5"/>

  <!-- Pleural line -->
  <line x1="638" y1="160" x2="676" y2="160" stroke="#fff" stroke-width="2.5"/>

  <!-- Consolidated lung below -->
  <path d="M636,164 L678,164 L712,262 Q657,275 602,262 Z" fill="url(#hepatization)" stroke="none" clip-path="url(#sector-r)"/>
  <path d="M636,164 L678,164 L712,262 Q657,275 602,262 Z" fill="url(#dense-stipple)" stroke="none" opacity="0.3" clip-path="url(#sector-r)"/>
  <text x="657" y="220" font-family="monospace" font-size="7" fill="#fff" text-anchor="middle">Consolidation</text>

  <!-- Sector border -->
  <path d="M657,118 L599,270 L715,270 Z" fill="none" stroke="#fff" stroke-width="1.5"/>

  <!-- M-MODE: Lung Pulse pattern (main feature) -->
  <rect x="548" y="280" width="220" height="170" fill="#000" stroke="#000" stroke-width="3"/>
  <text x="658" y="298" font-family="monospace" font-size="10" fill="#fff" text-anchor="middle" font-weight="bold">M-mode: Lung Pulse</text>

  <!-- Horizontal lines (stratosphere - no sliding) above pleural line -->
  <line x1="553" y1="310" x2="763" y2="310" stroke="#fff" stroke-width="1"/>
  <line x1="553" y1="318" x2="763" y2="318" stroke="#fff" stroke-width="0.8"/>
  <line x1="553" y1="326" x2="763" y2="326" stroke="#fff" stroke-width="1"/>

  <!-- Pleural line in M-mode -->
  <line x1="553" y1="334" x2="763" y2="334" stroke="#fff" stroke-width="2.5"/>

  <!-- Below pleural line: ALSO stratosphere (no sliding = no seashore) -->
  <!-- But with subtle cardiac pulsation rhythm -->
  <line x1="553" y1="342" x2="763" y2="342" stroke="#fff" stroke-width="0.8"/>
  <line x1="553" y1="350" x2="763" y2="350" stroke="#fff" stroke-width="0.6"/>
  <line x1="553" y1="358" x2="763" y2="358" stroke="#fff" stroke-width="0.8"/>
  <line x1="553" y1="366" x2="763" y2="366" stroke="#fff" stroke-width="0.6"/>
  <line x1="553" y1="374" x2="763" y2="374" stroke="#fff" stroke-width="0.8"/>
  <line x1="553" y1="382" x2="763" y2="382" stroke="#fff" stroke-width="0.6"/>
  <line x1="553" y1="390" x2="763" y2="390" stroke="#fff" stroke-width="0.8"/>
  <line x1="553" y1="398" x2="763" y2="398" stroke="#fff" stroke-width="0.6"/>

  <!-- Cardiac rhythm disruptions (lung pulse = cardiac motion transmitted) -->
  <!-- Vertical disturbance bands at regular cardiac intervals -->
  <rect x="575" y="334" width="8" height="110" fill="#fff" opacity="0.3"/>
  <rect x="615" y="334" width="8" height="110" fill="#fff" opacity="0.3"/>
  <rect x="655" y="334" width="8" height="110" fill="#fff" opacity="0.3"/>
  <rect x="695" y="334" width="8" height="110" fill="#fff" opacity="0.3"/>
  <rect x="735" y="334" width="8" height="110" fill="#fff" opacity="0.3"/>

  <!-- Subtle wavy disruptions at each heartbeat -->
  <path d="M575,340 Q579,336 583,340" fill="none" stroke="#fff" stroke-width="1.5"/>
  <path d="M615,340 Q619,336 623,340" fill="none" stroke="#fff" stroke-width="1.5"/>
  <path d="M655,340 Q659,336 663,340" fill="none" stroke="#fff" stroke-width="1.5"/>
  <path d="M695,340 Q699,336 703,340" fill="none" stroke="#fff" stroke-width="1.5"/>
  <path d="M735,340 Q739,336 743,340" fill="none" stroke="#fff" stroke-width="1.5"/>

  <path d="M575,360 Q579,356 583,360" fill="none" stroke="#fff" stroke-width="1"/>
  <path d="M615,360 Q619,356 623,360" fill="none" stroke="#fff" stroke-width="1"/>
  <path d="M655,360 Q659,356 663,360" fill="none" stroke="#fff" stroke-width="1"/>
  <path d="M695,360 Q699,356 703,360" fill="none" stroke="#fff" stroke-width="1"/>
  <path d="M735,360 Q739,356 743,360" fill="none" stroke="#fff" stroke-width="1"/>

  <!-- Heart rhythm markers at top -->
  <line x1="579" y1="302" x2="579" y2="308" stroke="#fff" stroke-width="1"/>
  <line x1="619" y1="302" x2="619" y2="308" stroke="#fff" stroke-width="1"/>
  <line x1="659" y1="302" x2="659" y2="308" stroke="#fff" stroke-width="1"/>
  <line x1="699" y1="302" x2="699" y2="308" stroke="#fff" stroke-width="1"/>
  <line x1="739" y1="302" x2="739" y2="308" stroke="#fff" stroke-width="1"/>

  <!-- ECG-like markers -->
  <path d="M570,305 L575,305 L577,300 L581,310 L583,305 L590,305" fill="none" stroke="#fff" stroke-width="0.8"/>
  <path d="M610,305 L615,305 L617,300 L621,310 L623,305 L630,305" fill="none" stroke="#fff" stroke-width="0.8"/>
  <path d="M650,305 L655,305 L657,300 L661,310 L663,305 L670,305" fill="none" stroke="#fff" stroke-width="0.8"/>
  <path d="M690,305 L695,305 L697,300 L701,310 L703,305 L710,305" fill="none" stroke="#fff" stroke-width="0.8"/>
  <path d="M730,305 L735,305 L737,300 L741,310 L743,305 L750,305" fill="none" stroke="#fff" stroke-width="0.8"/>

  <!-- Labels -->
  <text x="553" y="330" font-family="monospace" font-size="6" fill="#fff" transform="rotate(-90,550,330)">Stratosphere</text>
  <text x="553" y="390" font-family="monospace" font-size="6" fill="#fff" transform="rotate(-90,550,390)">Pulse pattern</text>

  <!-- M-mode border -->
  <rect x="548" y="280" width="220" height="170" fill="none" stroke="#fff" stroke-width="1.5"/>

  <!-- Explanation box -->
  <rect x="548" y="460" width="220" height="50" fill="#fff" stroke="#000" stroke-width="2"/>
  <text x="658" y="476" font-family="serif" font-size="8" fill="#000" text-anchor="middle" font-weight="bold">Lung Pulse = No Sliding + Cardiac Rhythm</text>
  <text x="658" y="488" font-family="serif" font-size="8" fill="#000" text-anchor="middle">No pneumothorax (PTX excluded)</text>
  <text x="658" y="500" font-family="serif" font-size="8" fill="#000" text-anchor="middle" font-style="italic">心臟搏動傳至實質化肺 = 排除氣胸</text>

  <!-- Labels -->
  <text x="657" y="522" font-family="serif" font-size="10" fill="#000" text-anchor="middle">Lung Pulse on M-mode</text>
  <text x="657" y="537" font-family="serif" font-size="10" fill="#000" text-anchor="middle">肺搏動：心跳傳導至實質化肺</text>
  <text x="657" y="552" font-family="serif" font-size="9" fill="#000" text-anchor="middle" font-style="italic">Stratosphere + cardiac rhythm</text>

  <!-- Bottom border decoration -->
  <line x1="20" y1="565" x2="780" y2="565" stroke="#000" stroke-width="1"/>
  <line x1="20" y1="568" x2="780" y2="568" stroke="#000" stroke-width="0.5"/>
  <text x="400" y="583" font-family="serif" font-size="10" fill="#000" text-anchor="middle" font-style="italic">Point-of-Care Ultrasound — Pneumonia / ARF Findings</text>
</svg>